<svg width="56" height="56" viewBox="0 0 56 56" fill="none" xmlns="http://www.w3.org/2000/svg">
<path d="M22.8065 20.5656H15.436C14.9528 20.5656 14.561 20.9574 14.561 21.4406V44.9663C14.561 45.4495 14.9528 45.8413 15.436 45.8413H22.8065C23.2898 45.8413 23.6815 45.4495 23.6815 44.9663V21.4406C23.6815 20.9573 23.2899 20.5656 22.8065 20.5656ZM21.9315 44.0912H16.311V22.3156H21.9315V44.0912ZM9.12056 29.6912H1.75C1.26678 29.6912 0.875 30.083 0.875 30.5662V44.9662C0.875 45.4494 1.26678 45.8412 1.75 45.8412H9.12056C9.60378 45.8412 9.99556 45.4494 9.99556 44.9662V30.5662C9.99556 30.0829 9.60378 29.6912 9.12056 29.6912ZM8.24556 44.0912H2.625V31.4412H8.24556V44.0912ZM4.7448 23.4675C4.44795 23.0862 4.51631 22.5363 4.89759 22.2395L18.5837 11.5828C18.8128 11.4046 19.1152 11.3514 19.391 11.4408L32.5651 15.7106L43.7978 4.38184L42.1847 4.72933C41.7126 4.83094 41.2468 4.53059 41.1451 4.0582C41.0434 3.58581 41.3439 3.12031 41.8162 3.01859L46.3088 2.05084C46.5935 1.98959 46.8902 2.07392 47.1 2.27605C47.3099 2.47817 47.4054 2.7713 47.3548 3.05819L46.6328 7.15297C46.558 7.57745 46.1887 7.87616 45.7721 7.87616C45.7217 7.87616 45.6706 7.87178 45.6192 7.8627C45.1433 7.77881 44.8256 7.32491 44.9095 6.84902L45.1461 5.50753L33.4287 17.325C33.1963 17.5593 32.8514 17.6429 32.5376 17.5413L19.2928 13.2485L5.97275 23.6203C5.81306 23.7446 5.62373 23.8049 5.43572 23.8049C5.17519 23.805 4.91728 23.689 4.7448 23.4675ZM51.0535 32.5041V11.7721C51.0535 11.2889 50.6617 10.8971 50.1785 10.8971H42.8078C42.3246 10.8971 41.9328 11.2889 41.9328 11.7721V29.3603C40.3039 29.4751 38.7617 29.9082 37.3676 30.5975V24.5125C37.3676 24.0293 36.9759 23.6375 36.4926 23.6375H29.1221C28.6389 23.6375 28.2471 24.0293 28.2471 24.5125V44.9663C28.2471 45.4495 28.6389 45.8413 29.1221 45.8413H31.227C32.9467 50.5736 37.4887 53.963 42.8078 53.963C49.5995 53.963 55.125 48.4375 55.125 41.6459C55.125 38.0225 53.5521 34.76 51.0535 32.5041ZM49.3035 12.6472V31.1856C47.6495 30.1549 45.7349 29.5051 43.6828 29.3604V12.6472H49.3035ZM29.9971 44.0913V25.3875H35.6176V31.6515C32.5147 33.8902 30.4908 37.5359 30.4908 41.6459C30.4908 42.483 30.5751 43.3008 30.735 44.0913H29.9971ZM42.8078 52.213C36.9811 52.213 32.2408 47.4726 32.2408 41.6459C32.2408 35.8192 36.9811 31.0789 42.8078 31.0789C48.6346 31.0789 53.375 35.8192 53.375 41.6459C53.375 47.4726 48.6346 52.213 42.8078 52.213ZM46.4641 43.5857C46.5569 44.3495 46.3506 45.0483 45.8678 45.6065C45.3709 46.1809 44.5842 46.5833 43.6828 46.741V47.1747C43.6828 47.6579 43.2911 48.0497 42.8078 48.0497C42.3246 48.0497 41.9328 47.6579 41.9328 47.1747V46.7267C40.5451 46.4452 39.4805 45.5099 39.1559 44.2078C39.039 43.7389 39.3244 43.264 39.7933 43.1471C40.2626 43.0303 40.737 43.3155 40.854 43.7844C41.0971 44.7594 42.108 45.082 42.9011 45.0642C43.5864 45.0479 44.2467 44.8058 44.5442 44.4617C44.7018 44.2794 44.7599 44.0681 44.7268 43.7965C44.6702 43.3302 44.3857 42.7588 42.6741 42.4778C40.0798 42.0518 39.4739 40.6958 39.4224 39.6331C39.3513 38.1694 40.3594 36.9445 41.9328 36.5797V36.1169C41.9328 35.6337 42.3246 35.2419 42.8078 35.2419C43.2911 35.2419 43.6828 35.6337 43.6828 36.1169V36.5719C44.7048 36.7966 45.6788 37.4427 46.1869 38.6529C46.3739 39.0985 46.1645 39.6113 45.7189 39.7983C45.2732 39.9856 44.7604 39.7758 44.5734 39.3303C44.1615 38.3493 43.1541 38.0967 42.3391 38.2819C42.1358 38.3279 41.1246 38.6056 41.1703 39.5482C41.1824 39.7989 41.2147 40.4647 42.9576 40.7509C45.0987 41.1024 46.2784 42.0562 46.4641 43.5857ZM42.8078 32.0337C37.5077 32.0337 33.1956 36.3457 33.1956 41.6459C33.1956 46.9461 37.5076 51.2581 42.8078 51.2581C48.108 51.2581 52.42 46.9461 52.42 41.6459C52.4202 36.3457 48.108 32.0337 42.8078 32.0337ZM42.8078 49.5081C38.4727 49.5081 34.9456 45.9811 34.9456 41.6459C34.9456 37.3107 38.4727 33.7837 42.8078 33.7837C47.1431 33.7837 50.67 37.3107 50.67 41.6459C50.6702 45.9812 47.1431 49.5081 42.8078 49.5081Z" fill="url(#paint0_linear_1330_27527)"/>
<defs>
<linearGradient id="paint0_linear_1330_27527" x1="0.875" y1="27.9971" x2="55.125" y2="27.9971" gradientUnits="userSpaceOnUse">
<stop stop-color="#D9AD4C"/>
<stop offset="0.176" stop-color="#D5A749"/>
<stop offset="0.411" stop-color="#CC9641"/>
<stop offset="0.489" stop-color="#C88F3E"/>
<stop offset="0.773" stop-color="#D6A848"/>
<stop offset="0.98" stop-color="#D6A848"/>
</linearGradient>
</defs>
</svg>
