<svg width="56" height="56" viewBox="0 0 56 56" fill="none" xmlns="http://www.w3.org/2000/svg">
<path d="M20.6466 20.7418C20.8733 20.2769 20.9929 19.7672 20.9966 19.25C20.9999 18.6645 20.8563 18.0877 20.5789 17.5721C20.3015 17.0566 19.8992 16.6189 19.4089 16.299C18.9186 15.9792 18.3559 15.7874 17.7723 15.7413C17.1887 15.6952 16.6028 15.7962 16.0684 16.0351C15.5339 16.274 15.0679 16.6432 14.7131 17.1088C14.3582 17.5744 14.1258 18.1216 14.0371 18.7002C13.9484 19.2789 14.0063 19.8706 14.2054 20.4211C14.4046 20.9716 14.7386 21.4633 15.177 21.8513L1.84375 47.7242L3.3995 48.5257L16.7292 22.6625C17.2095 22.7757 17.7087 22.7832 18.1922 22.6843C18.6757 22.5855 19.1319 22.3828 19.5292 22.0902L35.3466 35.2625C35.1206 35.726 35.001 36.2342 34.9966 36.75C34.9928 37.3389 35.1377 37.9193 35.4179 38.4374C35.698 38.9555 36.1044 39.3945 36.5993 39.7137C37.0943 40.033 37.6618 40.2222 38.2493 40.2638C38.8368 40.3054 39.4253 40.1981 39.9603 39.9518C40.4953 39.7054 40.9595 39.3281 41.3099 38.8547C41.6602 38.3812 41.8855 37.8271 41.9647 37.2434C42.044 36.6598 41.9746 36.0656 41.7632 35.5159C41.5517 34.9662 41.205 34.4788 40.755 34.0987L52.1825 10.5288L52.8414 13.5353L54.5511 13.16L53.3515 7.68771C53.3234 7.55953 53.2669 7.43931 53.186 7.33595C53.1052 7.23259 53.0021 7.14874 52.8845 7.09059C52.7669 7.03245 52.6377 7.0015 52.5065 7.00005C52.3752 6.9986 52.2454 7.02668 52.1265 7.08221L47.0515 9.45433L47.7926 11.039L50.6337 9.71246L39.1879 33.32C38.7174 33.2237 38.2321 33.2267 37.7629 33.3289C37.2937 33.431 36.851 33.6301 36.4631 33.9132L20.6466 20.7418ZM17.4966 21C17.1505 21 16.8122 20.8973 16.5244 20.705C16.2366 20.5127 16.0123 20.2394 15.8798 19.9197C15.7474 19.5999 15.7127 19.248 15.7802 18.9086C15.8478 18.5691 16.0144 18.2573 16.2592 18.0125C16.5039 17.7678 16.8157 17.6011 17.1552 17.5336C17.4947 17.4661 17.8465 17.5007 18.1663 17.6332C18.4861 17.7656 18.7594 17.9899 18.9517 18.2777C19.144 18.5655 19.2466 18.9038 19.2466 19.25C19.2466 19.7141 19.0622 20.1592 18.7341 20.4874C18.4059 20.8156 17.9608 21 17.4966 21ZM38.4966 35C38.8427 35 39.1811 35.1026 39.4689 35.2949C39.7567 35.4872 39.981 35.7605 40.1134 36.0803C40.2459 36.4 40.2805 36.7519 40.213 37.0914C40.1455 37.4308 39.9788 37.7427 39.7341 37.9874C39.4893 38.2321 39.1775 38.3988 38.838 38.4663C38.4986 38.5339 38.1467 38.4992 37.8269 38.3667C37.5072 38.2343 37.2338 38.01 37.0415 37.7222C36.8493 37.4344 36.7466 37.0961 36.7466 36.75C36.7466 36.2858 36.931 35.8407 37.2592 35.5125C37.5874 35.1843 38.0325 35 38.4966 35Z" fill="url(#paint0_linear_1330_27503)"/>
<path d="M16.817 13.6719C16.8989 13.7744 17.0029 13.8571 17.1212 13.914C17.2395 13.9709 17.3691 14.0004 17.5003 14.0004C17.6316 14.0004 17.7612 13.9709 17.8795 13.914C17.9977 13.8571 18.1017 13.7744 18.1837 13.6719L21.6837 9.29687C21.7868 9.16817 21.8513 9.01296 21.87 8.84915C21.8887 8.68533 21.8607 8.51957 21.7893 8.37097C21.7179 8.22236 21.6059 8.09696 21.4663 8.00921C21.3267 7.92146 21.1652 7.87494 21.0003 7.875H20.1253V2.625C20.1253 2.39294 20.0331 2.17038 19.869 2.00628C19.705 1.84219 19.4824 1.75 19.2503 1.75H15.7503C15.5183 1.75 15.2957 1.84219 15.1316 2.00628C14.9675 2.17038 14.8753 2.39294 14.8753 2.625V7.875H14.0003C13.8355 7.87494 13.6739 7.92146 13.5343 8.00921C13.3947 8.09696 13.2828 8.22236 13.2114 8.37097C13.1399 8.51957 13.112 8.68533 13.1306 8.84915C13.1493 9.01296 13.2139 9.16817 13.317 9.29687L16.817 13.6719ZM16.6253 8.75V3.5H18.3753V8.75C18.3747 8.97071 18.4574 9.18352 18.607 9.34579C18.7566 9.50805 18.962 9.60779 19.1821 9.625L17.5003 11.725L15.8186 9.625C16.0386 9.60779 16.244 9.50805 16.3936 9.34579C16.5432 9.18352 16.626 8.97071 16.6253 8.75Z" fill="url(#paint1_linear_1330_27503)"/>
<path d="M36.7503 54.2484H40.2503C40.4824 54.2484 40.705 54.1562 40.869 53.9921C41.0331 53.828 41.1253 53.6055 41.1253 53.3734V48.1234H42.0003C42.1652 48.1235 42.3267 48.0769 42.4663 47.9892C42.6059 47.9014 42.7179 47.776 42.7893 47.6274C42.8607 47.4788 42.8887 47.3131 42.87 47.1493C42.8513 46.9854 42.7868 46.8302 42.6837 46.7015L39.1837 42.3265C39.0986 42.2289 38.9936 42.1506 38.8757 42.097C38.7578 42.0434 38.6298 42.0156 38.5003 42.0156C38.3708 42.0156 38.2428 42.0434 38.1249 42.097C38.0071 42.1506 37.902 42.2289 37.817 42.3265L34.317 46.7015C34.2139 46.8302 34.1493 46.9854 34.1306 47.1493C34.112 47.3131 34.1399 47.4788 34.2114 47.6274C34.2828 47.776 34.3947 47.9014 34.5343 47.9892C34.6739 48.0769 34.8355 48.1235 35.0003 48.1234H35.8753V53.3734C35.8753 53.6055 35.9675 53.828 36.1316 53.9921C36.2957 54.1562 36.5183 54.2484 36.7503 54.2484ZM38.5003 44.2734L40.1821 46.3734C39.962 46.3906 39.7566 46.4903 39.607 46.6526C39.4574 46.8149 39.3747 47.0277 39.3753 47.2484V52.4984H37.6253V47.2484C37.626 47.0277 37.5432 46.8149 37.3936 46.6526C37.244 46.4903 37.0386 46.3906 36.8186 46.3734L38.5003 44.2734Z" fill="url(#paint2_linear_1330_27503)"/>
<path d="M7.875 18.375H9.625V20.125H7.875V18.375Z" fill="url(#paint3_linear_1330_27503)"/>
<path d="M32.375 18.375H34.125V20.125H32.375V18.375Z" fill="url(#paint4_linear_1330_27503)"/>
<path d="M28.875 18.375H30.625V20.125H28.875V18.375Z" fill="url(#paint5_linear_1330_27503)"/>
<path d="M25.375 18.375H27.125V20.125H25.375V18.375Z" fill="url(#paint6_linear_1330_27503)"/>
<path d="M35.875 18.375H37.625V20.125H35.875V18.375Z" fill="url(#paint7_linear_1330_27503)"/>
<path d="M0.875 18.375H2.625V20.125H0.875V18.375Z" fill="url(#paint8_linear_1330_27503)"/>
<path d="M4.375 18.375H6.125V20.125H4.375V18.375Z" fill="url(#paint9_linear_1330_27503)"/>
<path d="M21.875 35.875H23.625V37.625H21.875V35.875Z" fill="url(#paint10_linear_1330_27503)"/>
<path d="M18.375 35.875H20.125V37.625H18.375V35.875Z" fill="url(#paint11_linear_1330_27503)"/>
<path d="M53.375 35.875H55.125V37.625H53.375V35.875Z" fill="url(#paint12_linear_1330_27503)"/>
<path d="M49.875 35.875H51.625V37.625H49.875V35.875Z" fill="url(#paint13_linear_1330_27503)"/>
<path d="M28.875 35.875H30.625V37.625H28.875V35.875Z" fill="url(#paint14_linear_1330_27503)"/>
<path d="M46.375 35.875H48.125V37.625H46.375V35.875Z" fill="url(#paint15_linear_1330_27503)"/>
<path d="M25.375 35.875H27.125V37.625H25.375V35.875Z" fill="url(#paint16_linear_1330_27503)"/>
<defs>
<linearGradient id="paint0_linear_1330_27503" x1="1.84375" y1="27.7629" x2="54.5511" y2="27.7629" gradientUnits="userSpaceOnUse">
<stop stop-color="#D9AD4C"/>
<stop offset="0.176" stop-color="#D5A749"/>
<stop offset="0.411" stop-color="#CC9641"/>
<stop offset="0.489" stop-color="#C88F3E"/>
<stop offset="0.773" stop-color="#D6A848"/>
<stop offset="0.98" stop-color="#D6A848"/>
</linearGradient>
<linearGradient id="paint1_linear_1330_27503" x1="13.125" y1="7.87521" x2="21.8757" y2="7.87521" gradientUnits="userSpaceOnUse">
<stop stop-color="#D9AD4C"/>
<stop offset="0.176" stop-color="#D5A749"/>
<stop offset="0.411" stop-color="#CC9641"/>
<stop offset="0.489" stop-color="#C88F3E"/>
<stop offset="0.773" stop-color="#D6A848"/>
<stop offset="0.98" stop-color="#D6A848"/>
</linearGradient>
<linearGradient id="paint2_linear_1330_27503" x1="34.125" y1="48.132" x2="42.8757" y2="48.132" gradientUnits="userSpaceOnUse">
<stop stop-color="#D9AD4C"/>
<stop offset="0.176" stop-color="#D5A749"/>
<stop offset="0.411" stop-color="#CC9641"/>
<stop offset="0.489" stop-color="#C88F3E"/>
<stop offset="0.773" stop-color="#D6A848"/>
<stop offset="0.98" stop-color="#D6A848"/>
</linearGradient>
<linearGradient id="paint3_linear_1330_27503" x1="7.875" y1="19.25" x2="9.625" y2="19.25" gradientUnits="userSpaceOnUse">
<stop stop-color="#D9AD4C"/>
<stop offset="0.176" stop-color="#D5A749"/>
<stop offset="0.411" stop-color="#CC9641"/>
<stop offset="0.489" stop-color="#C88F3E"/>
<stop offset="0.773" stop-color="#D6A848"/>
<stop offset="0.98" stop-color="#D6A848"/>
</linearGradient>
<linearGradient id="paint4_linear_1330_27503" x1="32.375" y1="19.25" x2="34.125" y2="19.25" gradientUnits="userSpaceOnUse">
<stop stop-color="#D9AD4C"/>
<stop offset="0.176" stop-color="#D5A749"/>
<stop offset="0.411" stop-color="#CC9641"/>
<stop offset="0.489" stop-color="#C88F3E"/>
<stop offset="0.773" stop-color="#D6A848"/>
<stop offset="0.98" stop-color="#D6A848"/>
</linearGradient>
<linearGradient id="paint5_linear_1330_27503" x1="28.875" y1="19.25" x2="30.625" y2="19.25" gradientUnits="userSpaceOnUse">
<stop stop-color="#D9AD4C"/>
<stop offset="0.176" stop-color="#D5A749"/>
<stop offset="0.411" stop-color="#CC9641"/>
<stop offset="0.489" stop-color="#C88F3E"/>
<stop offset="0.773" stop-color="#D6A848"/>
<stop offset="0.98" stop-color="#D6A848"/>
</linearGradient>
<linearGradient id="paint6_linear_1330_27503" x1="25.375" y1="19.25" x2="27.125" y2="19.25" gradientUnits="userSpaceOnUse">
<stop stop-color="#D9AD4C"/>
<stop offset="0.176" stop-color="#D5A749"/>
<stop offset="0.411" stop-color="#CC9641"/>
<stop offset="0.489" stop-color="#C88F3E"/>
<stop offset="0.773" stop-color="#D6A848"/>
<stop offset="0.98" stop-color="#D6A848"/>
</linearGradient>
<linearGradient id="paint7_linear_1330_27503" x1="35.875" y1="19.25" x2="37.625" y2="19.25" gradientUnits="userSpaceOnUse">
<stop stop-color="#D9AD4C"/>
<stop offset="0.176" stop-color="#D5A749"/>
<stop offset="0.411" stop-color="#CC9641"/>
<stop offset="0.489" stop-color="#C88F3E"/>
<stop offset="0.773" stop-color="#D6A848"/>
<stop offset="0.98" stop-color="#D6A848"/>
</linearGradient>
<linearGradient id="paint8_linear_1330_27503" x1="0.875" y1="19.25" x2="2.625" y2="19.25" gradientUnits="userSpaceOnUse">
<stop stop-color="#D9AD4C"/>
<stop offset="0.176" stop-color="#D5A749"/>
<stop offset="0.411" stop-color="#CC9641"/>
<stop offset="0.489" stop-color="#C88F3E"/>
<stop offset="0.773" stop-color="#D6A848"/>
<stop offset="0.98" stop-color="#D6A848"/>
</linearGradient>
<linearGradient id="paint9_linear_1330_27503" x1="4.375" y1="19.25" x2="6.125" y2="19.25" gradientUnits="userSpaceOnUse">
<stop stop-color="#D9AD4C"/>
<stop offset="0.176" stop-color="#D5A749"/>
<stop offset="0.411" stop-color="#CC9641"/>
<stop offset="0.489" stop-color="#C88F3E"/>
<stop offset="0.773" stop-color="#D6A848"/>
<stop offset="0.98" stop-color="#D6A848"/>
</linearGradient>
<linearGradient id="paint10_linear_1330_27503" x1="21.875" y1="36.75" x2="23.625" y2="36.75" gradientUnits="userSpaceOnUse">
<stop stop-color="#D9AD4C"/>
<stop offset="0.176" stop-color="#D5A749"/>
<stop offset="0.411" stop-color="#CC9641"/>
<stop offset="0.489" stop-color="#C88F3E"/>
<stop offset="0.773" stop-color="#D6A848"/>
<stop offset="0.98" stop-color="#D6A848"/>
</linearGradient>
<linearGradient id="paint11_linear_1330_27503" x1="18.375" y1="36.75" x2="20.125" y2="36.75" gradientUnits="userSpaceOnUse">
<stop stop-color="#D9AD4C"/>
<stop offset="0.176" stop-color="#D5A749"/>
<stop offset="0.411" stop-color="#CC9641"/>
<stop offset="0.489" stop-color="#C88F3E"/>
<stop offset="0.773" stop-color="#D6A848"/>
<stop offset="0.98" stop-color="#D6A848"/>
</linearGradient>
<linearGradient id="paint12_linear_1330_27503" x1="53.375" y1="36.75" x2="55.125" y2="36.75" gradientUnits="userSpaceOnUse">
<stop stop-color="#D9AD4C"/>
<stop offset="0.176" stop-color="#D5A749"/>
<stop offset="0.411" stop-color="#CC9641"/>
<stop offset="0.489" stop-color="#C88F3E"/>
<stop offset="0.773" stop-color="#D6A848"/>
<stop offset="0.98" stop-color="#D6A848"/>
</linearGradient>
<linearGradient id="paint13_linear_1330_27503" x1="49.875" y1="36.75" x2="51.625" y2="36.75" gradientUnits="userSpaceOnUse">
<stop stop-color="#D9AD4C"/>
<stop offset="0.176" stop-color="#D5A749"/>
<stop offset="0.411" stop-color="#CC9641"/>
<stop offset="0.489" stop-color="#C88F3E"/>
<stop offset="0.773" stop-color="#D6A848"/>
<stop offset="0.98" stop-color="#D6A848"/>
</linearGradient>
<linearGradient id="paint14_linear_1330_27503" x1="28.875" y1="36.75" x2="30.625" y2="36.75" gradientUnits="userSpaceOnUse">
<stop stop-color="#D9AD4C"/>
<stop offset="0.176" stop-color="#D5A749"/>
<stop offset="0.411" stop-color="#CC9641"/>
<stop offset="0.489" stop-color="#C88F3E"/>
<stop offset="0.773" stop-color="#D6A848"/>
<stop offset="0.98" stop-color="#D6A848"/>
</linearGradient>
<linearGradient id="paint15_linear_1330_27503" x1="46.375" y1="36.75" x2="48.125" y2="36.75" gradientUnits="userSpaceOnUse">
<stop stop-color="#D9AD4C"/>
<stop offset="0.176" stop-color="#D5A749"/>
<stop offset="0.411" stop-color="#CC9641"/>
<stop offset="0.489" stop-color="#C88F3E"/>
<stop offset="0.773" stop-color="#D6A848"/>
<stop offset="0.98" stop-color="#D6A848"/>
</linearGradient>
<linearGradient id="paint16_linear_1330_27503" x1="25.375" y1="36.75" x2="27.125" y2="36.75" gradientUnits="userSpaceOnUse">
<stop stop-color="#D9AD4C"/>
<stop offset="0.176" stop-color="#D5A749"/>
<stop offset="0.411" stop-color="#CC9641"/>
<stop offset="0.489" stop-color="#C88F3E"/>
<stop offset="0.773" stop-color="#D6A848"/>
<stop offset="0.98" stop-color="#D6A848"/>
</linearGradient>
</defs>
</svg>
